<svg viewBox="0 0 20 20" fill="none" xmlns="http://www.w3.org/2000/svg">
    <path
        d="M0 1.43268C0 0.641645 0.661687 8.08126e-07 1.47796 8.08126e-07H18.522C19.3383 8.08126e-07 20 0.641645 20 1.43268V18.5673C20 19.3586 19.3383 20 18.522 20H1.47796C0.661687 20 0 19.3586 0 18.5673V1.43268Z"
        fill="#374151" />
    <path fill-rule="evenodd" clip-rule="evenodd"
        d="M6.06262 16.7421V7.71095H3.04179V16.7421H6.06262ZM4.55219 6.4779C5.60561 6.4779 6.26128 5.78441 6.26128 4.91775C6.24165 4.03158 5.60561 3.35733 4.57217 3.35733C3.53884 3.35733 2.86322 4.03158 2.86322 4.91775C2.86322 5.78441 3.51875 6.4779 4.5325 6.4779H4.55219Z"
        fill="white" />
    <path fill-rule="evenodd" clip-rule="evenodd"
        d="M7.73413 16.7421H10.7549V11.6987C10.7549 11.4288 10.7746 11.1591 10.8543 10.9662C11.0727 10.4269 11.5697 9.86838 12.4043 9.86838C13.4973 9.86838 13.9346 10.6966 13.9346 11.9106V16.7421H16.9552V11.5638C16.9552 8.7898 15.4649 7.49903 13.4774 7.49903C11.8477 7.49903 11.1323 8.40417 10.7348 9.02069H10.755V7.71095H7.73421C7.77385 8.55837 7.73413 16.7421 7.73413 16.7421Z"
        fill="white" />
</svg>
    