<svg width="273" height="307" viewBox="0 0 273 307" fill="none" xmlns="http://www.w3.org/2000/svg">
    <path fill-rule="evenodd" clip-rule="evenodd" d="M261.179 67.926C264.429 69.8018 267.385 73.0417 269.528 76.7504C271.671 80.4583 273 84.6352 273 88.3867V218.612C273 222.364 271.669 226.542 269.527 230.25C267.385 233.958 264.43 237.197 261.179 239.073L148.321 304.185C141.82 307.937 131.18 307.937 124.679 304.185L11.8211 239.073C8.57095 237.198 5.61523 233.958 3.47318 230.25C1.3302 226.543 0 222.364 0 218.612V88.3867C0 80.8845 5.31903 71.6767 11.8211 67.926L124.679 2.81369C131.18 -0.937897 141.82 -0.937897 148.321 2.81369L261.179 67.926ZM136.5 244.437C86.3224 244.437 45.5 203.643 45.5 153.5C45.5 103.357 86.3224 62.5634 136.5 62.5634C168.878 62.5634 199.075 79.9751 215.305 108.003L175.923 130.777C167.8 116.747 152.693 108.032 136.5 108.032C111.411 108.032 91 128.428 91 153.5C91 178.571 111.411 198.968 136.5 198.968C152.694 198.968 167.801 190.253 175.925 176.221L215.308 198.993C199.078 227.024 168.88 244.437 136.5 244.437ZM227.5 148.448H217.388V138.344H207.278V148.448H197.167V158.551H207.278V168.656H217.388V158.551H227.5V148.448ZM255.305 148.448H265.417V158.551H255.305V168.656H245.195V158.551H235.083V148.448H245.195V138.344H255.305V148.448Z" fill="#FBBF24"/>
</svg>
