<svg width="208" height="237" viewBox="0 0 208 237" fill="none" xmlns="http://www.w3.org/2000/svg">
   <path fill-rule="evenodd" clip-rule="evenodd" d="M208 0.777954L189.051 213.353L103.873 237L18.9293 213.386L0 0.777954H208ZM43.3949 97.0153L45.7287 123.091L103.91 123.091L104 123.091L135.975 123.091L132.952 156.909L103.91 164.758V164.76L103.886 164.767L74.8856 156.925L73.0317 136.129H58.9398H46.8922L50.5403 177.071L103.88 191.899L104 191.866V191.862L157.292 177.071L157.684 172.666L163.803 104.017L164.438 97.0153L169.139 44.2377H104H103.91H38.7055L41.0726 70.3135H103.91H104H140.602L138.233 97.0153L104 97.0153H43.3949Z" fill="#FBBF24"/>
</svg>