<svg width="155" height="155" viewBox="0 0 155 155" fill="none" xmlns="http://www.w3.org/2000/svg">
  <path d="M31.8652 123.162L5.49605 96.7762C2.36847 93.5673 0.430725 89.0317 0.430725 84.5981C0.430725 82.5458 1.58657 79.3368 2.45912 77.4999L26.7999 26.7692L31.8652 123.162Z" fill="#D97706"/>
  <path d="M122.123 31.8377L95.7541 5.45184C93.4537 3.13868 88.6603 0.383301 84.6035 0.383301C81.1133 0.383301 77.6911 1.08632 75.4814 2.41298L26.8112 26.7692L122.123 31.8377Z" fill="#FBBF24"/>
  <path d="M63.2997 154.617H127.189V127.222L79.5269 111.993L35.922 127.222L63.2997 154.617Z" fill="#FBBF24"/>
  <path d="M26.7999 108.954C26.7999 117.096 27.8197 119.091 31.8652 123.162L35.922 127.222H127.189L82.5751 76.4907L26.7999 26.7692V108.954Z" fill="#F59E0B"/>
  <path d="M107.924 26.7578H26.7999L127.189 127.21H154.566V64.3013L122.112 31.8264C117.556 27.2567 113.511 26.7578 107.924 26.7578Z" fill="#D97706"/>
</svg>
  