<svg width="257" height="294" viewBox="0 0 257 294" fill="none" xmlns="http://www.w3.org/2000/svg">
  <path d="M257 42.0001V68.2499C257 91.3829 199.443 110.25 128.5 110.25C57.5571 110.25 0 91.3829 0 68.2499V42.0001C0 18.8671 57.5571 0 128.5 0C199.443 0 257 18.8671 257 42.0001ZM257 101.062V160.125C257 183.258 199.443 202.125 128.5 202.125C57.5571 202.125 0 183.258 0 160.125V101.062C27.6074 120.094 78.1372 128.953 128.5 128.953C178.863 128.953 229.392 120.094 257 101.062ZM257 192.938V252C257 275.133 199.443 294 128.5 294C57.5571 294 0 275.133 0 252V192.938C27.6074 211.969 78.1372 220.828 128.5 220.828C178.863 220.828 229.392 211.969 257 192.938Z" fill="#FBBF24"/>
</svg>
  