<svg width="180" height="136" viewBox="0 0 180 136" fill="none" xmlns="http://www.w3.org/2000/svg">
  <path d="M178.226 56.4263C177.739 56.0438 173.182 52.6501 163.571 52.6501C161.032 52.6613 158.501 52.8751 156 53.2913C154.14 40.7138 143.929 34.8038 143.456 34.5301L140.876 33.0601L139.177 35.4751C137.051 38.7226 135.173 42.0751 134.261 45.8363C132.54 53.0176 133.586 59.7601 137.284 65.5238C132.814 67.9801 125.197 68.1976 123.75 68.2501H5.9325C2.835 68.2538 0.322495 70.7251 0.303745 73.7776C0.164995 84.0263 1.6275 94.6013 5.20125 104.224C9.285 114.791 15.3637 122.576 23.2687 127.339C32.1262 132.69 46.5188 135.75 62.835 135.75C70.2038 135.773 77.5612 135.116 84.8062 133.785C94.8787 131.959 104.572 128.486 113.482 123.51C120.825 119.314 127.432 113.978 133.054 107.704C142.447 97.2113 148.043 85.5301 152.205 75.1463C152.764 75.1463 153.322 75.1463 153.862 75.1463C164.149 75.1463 170.471 71.0851 173.959 67.6838C176.276 65.5126 178.088 62.8688 179.261 59.9401L180 57.8101L178.226 56.4263Z" fill="#FBBF24"/>
  <path d="M30 64.5H18.75C16.68 64.5 15 62.82 15 60.75V49.5C15 47.43 16.68 45.75 18.75 45.75H30C32.07 45.75 33.75 47.43 33.75 49.5V60.75C33.75 62.82 32.07 64.5 30 64.5Z" fill="#FBBF24"/>
  <path d="M52.5 64.5H41.25C39.18 64.5 37.5 62.82 37.5 60.75V49.5C37.5 47.43 39.18 45.75 41.25 45.75H52.5C54.57 45.75 56.25 47.43 56.25 49.5V60.75C56.25 62.82 54.57 64.5 52.5 64.5Z" fill="#FBBF24"/>
  <path d="M75 64.5H63.75C61.68 64.5 60 62.82 60 60.75V49.5C60 47.43 61.68 45.75 63.75 45.75H75C77.07 45.75 78.75 47.43 78.75 49.5V60.75C78.75 62.82 77.07 64.5 75 64.5Z" fill="#FBBF24"/>
  <path d="M97.5 64.5H86.25C84.18 64.5 82.5 62.82 82.5 60.75V49.5C82.5 47.43 84.18 45.75 86.25 45.75H97.5C99.57 45.75 101.25 47.43 101.25 49.5V60.75C101.25 62.82 99.57 64.5 97.5 64.5Z" fill="#FBBF24"/>
  <path d="M52.5 42H41.25C39.18 42 37.5 40.32 37.5 38.25V27C37.5 24.93 39.18 23.25 41.25 23.25H52.5C54.57 23.25 56.25 24.93 56.25 27V38.25C56.25 40.32 54.57 42 52.5 42Z" fill="#FBBF24"/>
  <path d="M75 42H63.75C61.68 42 60 40.32 60 38.25V27C60 24.93 61.68 23.25 63.75 23.25H75C77.07 23.25 78.75 24.93 78.75 27V38.25C78.75 40.32 77.07 42 75 42Z" fill="#FBBF24"/>
  <path d="M97.5 42H86.25C84.18 42 82.5 40.32 82.5 38.25V27C82.5 24.93 84.18 23.25 86.25 23.25H97.5C99.57 23.25 101.25 24.93 101.25 27V38.25C101.25 40.32 99.57 42 97.5 42Z" fill="#FBBF24"/>
  <path d="M97.5 19.5H86.25C84.18 19.5 82.5 17.82 82.5 15.75V4.5C82.5 2.43 84.18 0.75 86.25 0.75H97.5C99.57 0.75 101.25 2.43 101.25 4.5V15.75C101.25 17.82 99.57 19.5 97.5 19.5Z" fill="#FBBF24"/>
  <path d="M120 64.5H108.75C106.68 64.5 105 62.82 105 60.75V49.5C105 47.43 106.68 45.75 108.75 45.75H120C122.07 45.75 123.75 47.43 123.75 49.5V60.75C123.75 62.82 122.07 64.5 120 64.5Z" fill="#FBBF24"/>
</svg>
  