<svg width="374" height="85" viewBox="0 0 374 85" fill="none" xmlns="http://www.w3.org/2000/svg">
  <path d="M116 84.223V2.41328H120.437V15.282C120.961 14.7114 121.445 14.1053 121.886 13.468C125.592 5.77869 133.409 0.925833 141.943 1.02168C152.061 0.719933 160.283 4.46518 165.114 13.468C168.189 19.0609 169.881 25.3082 170.049 31.6883C170.217 38.0684 168.856 44.3961 166.08 50.143C161.578 60.2321 150.46 65.2483 138.557 63.4058C134.852 63.0909 131.286 61.8532 128.183 59.8056C125.08 57.7579 122.539 54.9657 120.792 51.6837V84.2195L116 84.223ZM120.437 31.3529L121.431 40.9592C123.185 51.8932 129.65 58.3542 139.799 59.5683C144.565 60.3519 149.456 59.4583 153.637 57.0399C157.818 54.6214 161.031 50.8277 162.729 46.3055C166.676 36.898 166.385 26.248 161.948 17.0606C160.136 13.0068 157.055 9.65272 153.168 7.50528C149.282 5.35784 144.802 4.53371 140.406 5.15744C136.28 5.45763 132.349 7.03549 129.161 9.67184C125.972 12.3082 123.684 15.8722 122.614 19.8686C121.669 23.6506 120.942 27.4839 120.437 31.3493V31.3529ZM260.655 42.4715C259.982 48.2316 257.24 53.5513 252.939 57.4412C248.638 61.3311 243.07 63.5264 237.272 63.6188C218.662 64.556 209.929 52.1985 208.541 37.9381C207.576 30.194 208.833 22.3351 212.166 15.2785C214.485 10.4377 218.286 6.46099 223.017 3.92454C227.747 1.3881 233.163 0.423606 238.479 1.17078C243.532 1.60031 248.322 3.60818 252.171 6.91023C256.021 10.2123 258.734 14.6413 259.928 19.5704C260.873 24.0606 261.569 28.5997 262.011 33.1669H213.139C212.233 46.096 219.181 56.4904 229.028 58.9967C241.294 62.0142 251.777 56.6999 255.582 45.0381C256.427 42.0455 257.968 41.623 260.687 42.4715H260.655ZM213.103 29.0276H256.818C256.544 15.2536 247.968 5.24263 236.334 5.12903C223.199 4.91603 213.675 14.5259 213.103 29.0276V29.0276ZM269.69 42.7732H273.975C274.132 45.93 275.158 48.9821 276.938 51.5939C278.718 54.2057 281.184 56.2759 284.064 57.5767C287.681 59.2045 291.619 59.9956 295.584 59.8911C299.549 59.7866 303.439 58.7892 306.965 56.9732C308.887 56.1077 310.497 54.6731 311.578 52.863C312.659 51.053 313.157 48.9549 313.007 46.8522C313.118 44.8243 312.564 42.8157 311.43 41.1308C310.296 39.4459 308.644 38.1768 306.724 37.5157C302.009 35.762 296.997 34.7964 292.194 33.2557C287.196 31.8327 282.308 30.0458 277.571 27.9094C269.832 24.1322 269.353 9.42099 278.114 4.76339C282.6 2.23192 287.649 0.864094 292.8 0.784722C297.95 0.70535 303.039 1.91695 307.601 4.30898C313.259 7.43298 316.387 13.7413 315.457 20.142H311.782C311.782 19.9645 311.449 19.8083 311.449 19.6272C310.994 7.91223 301.147 4.24863 290.575 5.27813C287.38 5.63313 284.352 6.59873 281.512 8.02583C279.804 8.80548 278.382 10.0965 277.44 11.7202C276.499 13.3439 276.086 15.22 276.258 17.089C276.261 18.9593 276.844 20.7826 277.926 22.3083C279.008 23.8339 280.536 24.987 282.3 25.609C286.915 27.3023 291.814 28.3886 296.588 29.7163L308.126 32.7338C310.748 33.5946 313.048 35.2311 314.72 37.4268C316.392 39.6226 317.358 42.2742 317.491 45.031C318.414 51.2258 315.254 57.314 309.667 60.1363C299.578 65.8447 282.96 64.3359 275.558 57.1188C271.77 53.3096 269.658 48.1373 269.701 42.7697L269.69 42.7732ZM371.859 20.1455H367.841C367.841 19.6024 367.628 19.0805 367.567 18.6652C367.503 15.6529 366.405 12.7543 364.458 10.4552C362.51 8.15621 359.832 6.59658 356.871 6.03783C351.286 4.43597 345.328 4.72299 339.923 6.85433C337.786 7.46598 335.904 8.753 334.559 10.5229C333.214 12.2929 332.478 14.4507 332.461 16.6736C332.385 18.8564 333.064 20.9986 334.385 22.738C335.706 24.4773 337.587 25.7072 339.71 26.2196L358.078 30.934C360.064 31.4104 362.02 32.0055 363.936 32.7161C369.793 34.8461 373.769 40.2847 373.947 46.5007C374.034 49.5434 373.2 52.5414 371.552 55.1011C369.905 57.6607 367.522 59.6622 364.717 60.8427C360.453 62.7792 355.833 63.8038 351.151 63.8509C346.469 63.898 341.828 62.9665 337.527 61.1161C333.99 59.5908 331.005 57.0185 328.974 53.7453C326.943 50.4722 325.963 46.6554 326.167 42.8087H330.093C331.57 49.9265 336.459 55.855 343.164 58.6595C349.87 61.464 357.528 60.7753 363.627 56.8277C365.457 55.8761 366.975 54.4201 368.003 52.632C369.032 50.844 369.526 48.7988 369.427 46.7386C369.518 44.7093 368.945 42.7057 367.795 41.0317C366.644 39.3576 364.979 38.1045 363.052 37.4624C358.337 35.7087 353.325 34.7751 348.521 33.2024C343.495 31.8014 338.579 30.0347 333.81 27.9165C326.256 24.1996 325.652 9.60913 334.265 4.95508C338.806 2.31737 343.953 0.900327 349.205 0.84185C354.457 0.783373 359.634 2.08546 364.234 4.62138C366.864 6.19139 368.982 8.49244 370.328 11.2443C371.674 13.9962 372.192 17.0802 371.817 20.1207L371.859 20.1455ZM108.698 62.142C107.116 62.7402 105.37 62.7386 103.789 62.1376C102.208 61.5365 100.902 60.3776 100.117 58.8796L84.4973 37.2778L82.2324 34.2603L64.1061 58.9115C63.3673 60.3451 62.1319 61.4608 60.6306 62.0501C59.1293 62.6393 57.4649 62.6619 55.9482 62.1136L79.3001 30.7849L57.5741 2.47718C60.7975 1.31278 64.3901 2.57658 66.1828 5.49468L82.3708 27.3627L98.6547 5.57988C99.399 4.17083 100.635 3.08449 102.128 2.52747C103.621 1.97045 105.267 1.98161 106.752 2.55883L98.321 13.7449L86.9006 28.6087C86.5837 28.8918 86.3301 29.2386 86.1564 29.6265C85.9828 30.0143 85.893 30.4345 85.893 30.8594C85.893 31.2844 85.9828 31.7045 86.1564 32.0924C86.3301 32.4803 86.5837 32.8271 86.9006 33.1101L108.651 62.142H108.698ZM207.849 2.17544V6.43543C204.794 6.23502 201.73 6.67751 198.856 7.73436C195.982 8.7912 193.361 10.4389 191.164 12.5711C188.966 14.7034 187.24 17.2727 186.096 20.1134C184.953 22.954 184.418 26.0029 184.526 29.0631C184.526 39.0126 184.526 48.9621 184.526 58.9115V62.2947H180.205V2.44168H184.465V14.7069C189.691 5.76093 197.756 2.44169 207.878 2.20029L207.849 2.17544ZM0.0321256 30.3944L1.93492 20.9975C7.16052 2.41683 28.4605 -5.31506 43.1149 6.19404C51.6953 12.9319 53.8359 22.4779 53.417 33.2344H5.07667C4.29567 52.447 18.1584 64.0484 35.8907 58.127C41.734 55.997 46.1324 51.1406 47.5808 45.1056C48.518 42.0881 50.0658 41.5698 52.8987 42.4431C52.4263 46.1213 51.126 49.6446 49.0956 52.7479C47.0653 55.8512 44.3577 58.4538 41.1766 60.3599C35.921 63.2341 29.8912 64.373 23.9494 63.6136C18.0075 62.8542 12.458 60.2355 8.09418 56.1319C3.77738 51.279 1.17168 45.1446 0.664025 38.6659C0.664025 37.6009 0.309025 36.6069 0.0605252 35.6484C0.0368586 33.8568 0.0250244 32.1055 0.0250244 30.3944H0.0321256ZM5.13702 29.0951H48.8517C48.5784 15.1684 39.7886 5.28879 28.0665 5.19649C15.0167 5.01899 5.68018 14.6821 5.10508 29.0347L5.13702 29.0951Z" fill="#FBBF24"/>
</svg>
  