<svg width="163" height="223" viewBox="0 0 163 223" fill="none" xmlns="http://www.w3.org/2000/svg">
  <path d="M0.414307 179.401L27.7943 4.2265C28.129 2.07813 29.8001 0.384557 31.9441 0.0203874C34.088 -0.343782 36.2245 0.703927 37.2496 2.62133L65.5653 55.4264L76.8519 33.9403C77.7259 32.2789 79.4491 31.2387 81.3268 31.2387C83.2044 31.2387 84.9275 32.2789 85.8017 33.9403L162.215 179.401H0.414307V179.401Z" fill="#F59E0B"/>
  <path d="M95.0054 111.164L65.5524 55.4014L0.414459 179.401L95.0054 111.164Z" fill="#D97706"/>
  <path d="M162.217 179.401L141.246 49.6507C140.929 47.7874 139.599 46.2567 137.798 45.6798C135.997 45.1028 134.026 45.583 132.688 46.9189L0.414459 179.4L73.6047 220.438C78.2008 223.004 83.7983 223.004 88.3944 220.438L162.217 179.4V179.401Z" fill="#FBBF24"/>
  <path d="M141.246 49.6506C140.929 47.7873 139.599 46.2566 137.798 45.6797C135.997 45.1027 134.025 45.5829 132.688 46.9188L106.435 73.2347L85.7903 33.9393C84.9162 32.278 83.193 31.2378 81.3154 31.2378C79.4378 31.2378 77.7147 32.278 76.8405 33.9393L65.5539 55.4255L37.2369 2.62126C36.21 0.703348 34.071 -0.342665 31.9245 0.0242199C29.778 0.391105 28.1126 2.08892 27.7816 4.23898L0.414306 179.401H0.32605L0.414306 179.503L1.13478 179.856L132.65 48.2097C133.986 46.8665 135.963 46.3837 137.768 46.959C139.574 47.5343 140.907 49.0709 141.22 50.9396L162.014 179.527L162.217 179.401L141.246 49.6502L141.246 49.6506ZM0.654464 179.161L27.7943 5.47777C28.1249 3.32771 29.7943 1.62989 31.939 1.26301C34.0836 0.896123 36.2228 1.9418 37.2513 3.86005L65.5653 56.6652L76.8519 35.179C77.7259 33.5176 79.4491 32.4774 81.3268 32.4774C83.2044 32.4774 84.9274 33.5176 85.8017 35.179L106.027 73.6391L0.653276 179.161H0.654464Z" fill="white" fill-opacity="0.2"/>
  <path opacity="0.2" d="M88.3944 219.201C83.7983 221.767 78.2008 221.767 73.6047 219.201L0.591327 178.277L0.414307 179.402L73.6046 220.428C78.2007 222.994 83.7981 222.994 88.3942 220.428L162.216 179.402L162.027 178.239L88.3944 219.202V219.201Z" fill="#A52714"/>
  <path d="M141.036 49.6774C140.72 47.8146 139.395 46.2834 137.6 45.7099C135.805 45.1363 133.841 45.6131 132.508 46.9487L106.345 73.2513L85.7747 33.9741C84.9035 32.3135 83.1864 31.2736 81.3156 31.2736C79.4447 31.2736 77.7276 32.3135 76.8564 33.9741L65.6077 55.451L37.3913 2.66861C36.3679 0.751539 34.2365 -0.294303 32.0993 0.0727513C29.9622 0.439806 28.2986 2.13627 27.9691 4.28582L0.697235 179.371L73.6317 220.379C78.2117 222.944 83.7896 222.944 88.3698 220.379L161.934 179.371L141.036 49.6774Z" fill="url(#paint0_linear_0:1)"/>
  <defs>
  <linearGradient id="paint0_linear_0:1" x1="-4.92992" y1="37.8359" x2="196.266" y2="143.98" gradientUnits="userSpaceOnUse">
  <stop stop-color="white" stop-opacity="0.1"/>
  <stop offset="0.14" stop-color="white" stop-opacity="0.08"/>
  <stop offset="0.61" stop-color="white" stop-opacity="0.02"/>
  <stop offset="1" stop-color="white" stop-opacity="0"/>
  </linearGradient>
  </defs>
</svg>
