<svg width="345" height="130" viewBox="0 0 345 130" fill="none" xmlns="http://www.w3.org/2000/svg">
    <path fill-rule="evenodd" clip-rule="evenodd" d="M27 40.1667C26.3333 40.1667 26.1667 39.8334 26.5 39.3334L30 34.8333C30.3333 34.3333 31.1667 34 31.8333 34H91.3333C92 34 92.1667 34.5 91.8333 35L89 39.3334C88.6667 39.8334 87.8334 40.3334 87.3334 40.3334L27 40.1667Z" fill="#FBBF24"/>
    <path fill-rule="evenodd" clip-rule="evenodd" d="M1.83334 55.5C1.16667 55.5 1.00001 55.1667 1.33334 54.6667L4.83334 50.1667C5.16667 49.6667 6 49.3333 6.66667 49.3333H82.6667C83.3333 49.3333 83.6667 49.8333 83.5 50.3333L82.1667 54.3333C82 55 81.3333 55.3333 80.6667 55.3333L1.83334 55.5Z" fill="#FBBF24"/>
    <path fill-rule="evenodd" clip-rule="evenodd" d="M42.1667 70.8333C41.5 70.8333 41.3333 70.3333 41.6667 69.8333L44 65.6667C44.3333 65.1667 45 64.6667 45.6667 64.6667H79C79.6667 64.6667 80 65.1667 80 65.8333L79.6667 69.8333C79.6667 70.5 79 71 78.5 71L42.1667 70.8333Z" fill="#FBBF24"/>
    <path fill-rule="evenodd" clip-rule="evenodd" d="M215.167 37.1667C204.667 39.8333 197.5 41.8333 187.167 44.5C184.667 45.1667 184.5 45.3333 182.333 42.8333C179.833 40 178 38.1667 174.5 36.5C164 31.3333 153.833 32.8333 144.333 39C133 46.3333 127.167 57.1667 127.333 70.6667C127.5 84 136.667 95 149.833 96.8333C161.167 98.3333 170.667 94.3333 178.167 85.8333C179.667 84 181 82 182.667 79.6667C176.667 79.6667 169.167 79.6667 150.5 79.6667C147 79.6667 146.167 77.5 147.333 74.6667C149.5 69.5 153.5 60.8333 155.833 56.5C156.333 55.5 157.5 53.8333 160 53.8333H220.667C220.333 58.3333 220.333 62.8333 219.667 67.3333C217.833 79.3333 213.333 90.3333 206 100C194 115.833 178.333 125.667 158.5 128.333C142.167 130.5 127 127.333 113.667 117.333C101.333 108 94.3333 95.6667 92.5 80.3333C90.3333 62.1667 95.6667 45.8333 106.667 31.5C118.5 16 134.167 6.16667 153.333 2.66667C169 -0.166661 184 1.66667 197.5 10.8333C206.333 16.6667 212.667 24.6667 216.833 34.3333C217.833 35.8333 217.167 36.6667 215.167 37.1667V37.1667Z" fill="#FBBF24"/>
    <path d="M270.333 129.333C255.167 129 241.333 124.667 229.667 114.667C219.833 106.167 213.667 95.3333 211.667 82.5C208.667 63.6667 213.833 47 225.167 32.1667C237.333 16.1667 252 7.83334 271.833 4.33334C288.833 1.33334 304.833 3 319.333 12.8333C332.5 21.8333 340.667 34 342.833 50C345.667 72.5 339.167 90.8333 323.667 106.5C312.667 117.667 299.167 124.667 283.667 127.833C279.167 128.667 274.667 128.833 270.333 129.333V129.333ZM310 62C309.833 59.8333 309.833 58.1667 309.5 56.5C306.5 40 291.333 30.6667 275.5 34.3333C260 37.8333 250 47.6667 246.333 63.3333C243.333 76.3333 249.667 89.5 261.667 94.8333C270.833 98.8333 280 98.3333 288.833 93.8333C302 87 309.167 76.3333 310 62V62Z" fill="#FBBF24"/>
</svg>
