<svg width="200" height="200" viewBox="0 0 200 200" fill="none" xmlns="http://www.w3.org/2000/svg">
  <path fill-rule="evenodd" clip-rule="evenodd" d="M180.469 0H19.5312C8.74444 0 0 8.74444 0 19.5312V180.469C0 191.256 8.74444 200 19.5312 200H180.469C191.256 200 200 191.256 200 180.469V19.5312C200 8.74444 191.256 0 180.469 0ZM52.5873 167.135L52.5876 167.134C57.018 176.531 65.7455 184.317 80.78 184.317C97.4279 184.317 108.839 175.456 108.839 155.99V91.8193H90.0438V155.724C90.0438 165.121 86.1502 167.537 79.9743 167.537C73.5314 167.537 70.8454 163.107 67.8927 157.872L52.5876 167.134L52.587 167.133L52.5873 167.135ZM134.351 156.26L119.048 165.121C124.551 175.996 135.829 184.319 153.282 184.319C171.137 184.319 184.428 175.056 184.428 158.139C184.428 142.432 175.432 135.452 159.456 128.605L154.758 126.591C146.703 123.1 143.213 120.817 143.213 115.179C143.213 110.615 146.703 107.124 152.208 107.124C157.578 107.124 161.067 109.406 164.29 115.179L178.923 105.782C172.748 94.907 164.156 90.7448 152.208 90.7448C135.425 90.7448 124.685 101.485 124.685 115.582C124.685 130.887 133.681 138.136 147.241 143.908L151.938 145.923C160.531 149.681 165.632 151.964 165.632 158.408C165.632 163.778 160.666 167.672 152.878 167.672C143.616 167.672 138.38 162.839 134.351 156.26Z" fill="#FBBF24"/>
</svg>
  