<svg width="129" height="174" viewBox="0 0 129 174" fill="none" xmlns="http://www.w3.org/2000/svg">
  <path d="M41.5994 134.509C41.5994 134.509 34.9486 138.369 46.3325 139.675C60.1238 141.245 67.1724 141.02 82.3704 138.15C82.3704 138.15 86.3661 140.65 91.9464 142.816C57.8764 157.388 14.8392 141.972 41.5994 134.509Z" fill="#F59E0B"/>
  <path d="M37.4362 115.493C37.4362 115.493 29.9768 121.004 41.3691 122.18C56.1014 123.697 67.7358 123.821 87.8677 119.952C87.8677 119.952 90.6523 122.769 95.0307 124.31C53.838 136.331 7.9567 125.258 37.4362 115.493Z" fill="#F59E0B"/>
  <path d="M72.5331 83.2357C80.928 92.8814 70.3275 101.561 70.3275 101.561C70.3275 101.561 91.6434 90.5795 81.854 76.8277C72.7109 64.0034 65.6994 57.6314 103.657 35.6619C103.657 35.6619 44.0762 50.5124 72.5331 83.2357Z" fill="#FBBF24"/>
  <path d="M117.594 148.575C117.594 148.575 122.515 152.622 112.173 155.753C92.5075 161.698 30.3225 163.494 13.0477 155.99C6.83792 153.294 18.4831 149.552 22.1462 148.767C25.9665 147.94 28.1497 148.094 28.1497 148.094C21.2437 143.239 -16.4876 157.628 8.98401 161.748C78.4489 172.991 135.612 156.686 117.594 148.575Z" fill="#F59E0B"/>
  <path d="M44.7977 95.7904C44.7977 95.7904 13.1664 103.288 33.5962 106.011C42.2224 107.164 59.4183 106.903 75.4359 105.563C88.5263 104.461 101.671 102.118 101.671 102.118C101.671 102.118 97.0549 104.091 93.7154 106.367C61.5944 114.798 -0.457414 110.875 17.4065 102.252C32.514 94.9637 44.7977 95.7904 44.7977 95.7904Z" fill="#F59E0B"/>
  <path d="M101.54 127.444C134.193 110.51 119.096 94.2376 108.558 96.4299C105.975 96.9664 104.824 97.4313 104.824 97.4313C104.824 97.4313 105.782 95.9323 107.614 95.2834C128.461 87.9691 144.493 116.856 100.884 128.297C100.884 128.297 101.389 127.847 101.54 127.444Z" fill="#F59E0B"/>
  <path d="M81.854 0.186768C81.854 0.186768 99.9375 18.2399 64.7026 46.0004C36.4479 68.2691 58.2597 80.9661 64.6909 95.473C48.1982 80.6225 36.0947 67.5496 44.2146 55.3825C56.1328 37.5223 89.1503 28.863 81.854 0.186768Z" fill="#FBBF24"/>
  <path d="M48.0063 173.329C79.3486 175.331 127.478 172.218 128.618 157.417C128.618 157.417 126.427 163.028 102.715 167.484C75.9641 172.508 42.9701 171.922 23.4011 168.702C23.4015 168.701 27.4071 172.011 48.0063 173.329Z" fill="#F59E0B"/>
</svg>
  