<svg width="239" height="237" viewBox="0 0 239 237" fill="none" xmlns="http://www.w3.org/2000/svg">
  <path fill-rule="evenodd" clip-rule="evenodd" d="M140.466 0.0146484C138.75 0.0146484 137.156 0.381767 135.685 0.871229C138.811 2.95149 140.528 5.7048 141.386 8.82519C141.447 9.25347 141.57 9.55941 141.631 9.98768C141.693 10.3548 141.754 10.7219 141.754 11.089C141.999 16.4732 140.344 17.1462 139.179 20.3278C137.401 24.4272 137.892 28.8325 140.037 32.3812C140.221 32.8094 140.466 33.2989 140.773 33.7272C138.443 18.2476 151.378 15.9226 153.769 11.089C153.953 6.86729 150.458 4.05281 147.7 2.09491C145.064 0.504125 142.673 0.0146484 140.466 0.0146484V0.0146484ZM159.96 3.50216C159.715 4.90939 159.899 4.54228 159.838 5.2765C159.776 5.76597 159.776 6.37782 159.715 6.86729C159.593 7.35676 159.47 7.84623 159.286 8.33573C159.164 8.82519 158.98 9.31467 158.796 9.80413C158.55 10.2936 158.367 10.7219 158.121 11.2114C157.938 11.4562 157.815 11.7008 157.631 11.9456C157.509 12.1291 157.386 12.3127 157.263 12.4962C156.957 12.9246 156.65 13.3528 156.344 13.7199C155.976 14.087 155.669 14.5153 155.24 14.8213V14.8825C154.872 15.1884 154.505 15.5556 154.075 15.8615C152.788 16.8404 151.317 17.5746 149.968 18.4924C149.539 18.7983 149.11 19.0431 148.742 19.4102C148.313 19.7161 147.945 20.022 147.577 20.3891C147.148 20.7562 146.842 21.1233 146.474 21.5516C146.168 21.9187 145.8 22.347 145.555 22.7753C145.248 23.2036 144.941 23.6319 144.696 24.0602C144.451 24.5496 144.267 24.9779 144.022 25.4674C143.838 25.9569 143.654 26.3852 143.532 26.8746C143.348 27.4253 143.225 27.9148 143.102 28.4043C143.041 28.6491 143.041 28.9549 142.98 29.1996C142.918 29.4445 142.918 29.6891 142.857 29.9339C142.857 30.4233 142.796 30.974 142.796 31.4634C142.796 31.8306 142.796 32.1977 142.857 32.5648C142.857 33.0542 142.919 33.5437 143.041 34.0944C143.103 34.5838 143.225 35.0733 143.348 35.5628C143.532 36.0523 143.654 36.5418 143.838 37.0312C143.961 37.3372 144.145 37.6431 144.267 37.8878L130.168 32.4424C127.777 31.7694 125.448 31.1575 123.057 30.6069C121.769 30.301 120.482 29.995 119.195 29.6891C115.517 28.9549 111.777 28.4043 108.038 28.0372C107.915 28.0372 107.854 27.9759 107.731 27.9759C104.053 27.6088 100.436 27.4252 96.7583 27.4252C94.0609 27.4252 91.3636 27.5475 88.7276 27.7311C84.9882 27.976 81.2488 28.4654 77.5094 29.0772C76.5898 29.1995 75.6703 29.3831 74.7508 29.5667C72.8504 29.9338 71.0113 30.3621 69.2336 30.7904C68.314 31.0352 67.3945 31.2798 66.475 31.5246C65.5555 31.8917 64.6972 32.32 63.839 32.6871C63.1647 32.993 62.4903 33.2989 61.816 33.6048C61.6935 33.6661 61.5707 33.6661 61.5095 33.7271C60.8965 34.033 60.3448 34.2778 59.7931 34.5837C59.6092 34.645 59.4865 34.706 59.3639 34.7673C58.6896 35.0732 58.0153 35.4403 57.4636 35.7462C57.0345 35.9297 56.6054 36.1745 56.2375 36.3581C56.0536 36.4803 55.8084 36.6029 55.6858 36.664C55.1341 36.9699 54.5824 37.2758 54.092 37.5817C53.5402 37.8876 53.0498 38.1936 52.6207 38.4995C52.1916 38.8054 51.7625 39.0501 51.3947 39.356C51.3332 39.4173 51.2722 39.4173 51.2108 39.4783C50.8429 39.7232 50.4138 40.029 50.046 40.3349C50.046 40.3349 49.9846 40.3962 49.9235 40.4572C49.617 40.702 49.3105 40.9467 49.004 41.1914C48.8815 41.2527 48.7587 41.3749 48.6362 41.4362C48.3297 41.6811 48.0232 41.9869 47.7167 42.2316C47.6552 42.3539 47.5327 42.4152 47.4713 42.4765C47.1035 42.8436 46.7357 43.1495 46.3679 43.5166C46.3065 43.5166 46.3065 43.5779 46.2454 43.6389C45.8776 43.9448 45.5098 44.3119 45.1419 44.679C45.0805 44.7403 45.0805 44.8013 45.0194 44.8013C44.7129 45.1072 44.4064 45.4131 44.0999 45.7802C43.9774 45.9025 43.7934 46.0251 43.6708 46.1473C43.3643 46.5144 42.9965 46.8815 42.6287 47.2487C42.5673 47.3709 42.4448 47.4322 42.3834 47.5546C41.893 48.0441 41.4638 48.5335 40.9734 49.023C40.912 49.0843 40.8509 49.1453 40.7895 49.2066C39.8087 50.2467 38.7665 51.2868 37.6631 52.2046C36.5597 53.1835 35.3949 54.1013 34.2302 54.8967C33.0041 55.7533 31.8394 56.4875 30.552 57.2217C29.326 57.8947 28.0387 58.5066 26.69 59.0572C25.4027 59.6079 24.054 60.0974 22.7054 60.5256C20.1307 61.0763 17.4947 62.1164 15.2265 62.3C14.7361 62.3 14.1844 62.4223 13.694 62.4835C13.1423 62.6058 12.6518 62.7284 12.1614 62.8506C11.671 63.0342 11.1806 63.2177 10.6902 63.4013C10.1998 63.5848 9.70935 63.8296 9.21894 64.0743C8.78981 64.3802 8.2994 64.625 7.87027 64.9309C7.44117 65.2368 7.01205 65.6039 6.64423 65.971C6.21513 66.277 5.78601 66.7053 5.41819 67.0723C5.05038 67.5007 4.68256 67.8678 4.37606 68.296C4.06955 68.7855 3.70174 69.2138 3.45652 69.7033C3.15002 70.1316 2.84351 70.621 2.59829 71.1105C2.35299 71.6612 2.10788 72.1506 1.92397 72.7013C1.74007 73.1908 1.55616 73.7414 1.37225 74.2921C1.24974 74.7816 1.12695 75.271 1.06575 75.7605C1.06575 75.8218 1.00435 75.8828 1.00435 75.9441C0.881843 76.4947 0.881843 77.229 0.820444 77.5961C0.759048 78.0244 0.697937 78.3914 0.697937 78.8198C0.697937 79.0646 0.697937 79.3704 0.759334 79.6151C0.82073 80.0435 0.881841 80.4105 1.00464 80.7777C1.12715 81.1447 1.24995 81.5118 1.43374 81.879V81.9402C1.61765 82.3074 1.86287 82.6745 2.10806 83.0416C2.35336 83.4087 2.5985 83.7758 2.905 84.1429C3.2115 84.4488 3.57932 84.8159 3.94713 85.1218C4.31495 85.4889 4.68276 85.7948 5.11186 86.1008C6.58312 87.3856 6.95094 87.814 8.8513 88.7929C9.1578 88.9764 9.46433 89.0988 9.83215 89.2824C9.89356 89.2824 9.95466 89.3436 10.0161 89.3436C10.0161 89.4659 10.0161 89.5272 10.0775 89.6496C10.1389 90.1391 10.2614 90.6285 10.384 91.118C10.5065 91.6687 10.6905 92.1581 10.8744 92.5864C11.0583 92.9535 11.1809 93.3206 11.3648 93.6877C11.4262 93.81 11.4873 93.9326 11.5487 93.9937C11.794 94.4831 12.0391 94.9115 12.2843 95.3397C12.5909 95.768 12.8974 96.1963 13.2039 96.6246C13.5104 96.9917 13.8782 97.42 14.246 97.7871C14.6138 98.1542 14.9816 98.4601 15.4108 98.8272C15.4108 98.8272 15.4722 98.8885 15.5333 98.8885C15.9011 99.1945 16.2689 99.5004 16.6367 99.7451C17.0658 100.051 17.4949 100.296 17.9853 100.541C18.4145 100.785 18.9049 101.03 19.3953 101.214C19.7631 101.397 20.1922 101.519 20.6213 101.642C20.6827 101.703 20.7438 101.703 20.8666 101.764C21.1119 101.825 21.4183 101.886 21.6636 101.948C21.4796 105.252 21.4182 108.372 21.9089 109.473C22.4606 110.697 25.1579 106.965 27.8552 102.682C27.4873 106.904 27.2421 111.86 27.8552 113.328C28.5295 114.858 32.2076 110.085 35.3953 104.823C78.8585 94.7892 118.521 124.769 122.689 167.109C121.893 160.501 113.739 156.83 110 157.748C108.161 162.275 105.035 168.088 100.008 171.698C100.437 167.66 100.253 163.499 99.3947 159.461C98.0461 165.09 95.4101 170.352 91.7932 174.879C85.9695 175.308 80.1458 172.493 77.0807 168.271C76.8354 168.088 76.7742 167.721 76.5903 167.476C76.4064 167.048 76.2225 166.619 76.0999 166.191C75.916 165.763 75.7934 165.335 75.7321 164.906C75.6707 164.478 75.6707 164.05 75.6707 163.56C75.6707 163.254 75.6707 162.948 75.6707 162.643C75.7321 162.214 75.8546 161.786 75.9772 161.358C76.0997 160.929 76.2225 160.501 76.4063 160.073C76.6516 159.644 76.8354 159.216 77.1419 158.788C78.1841 155.851 78.1841 153.465 76.2837 152.058C75.9159 151.813 75.5481 151.629 75.1189 151.446C74.8736 151.384 74.5672 151.262 74.322 151.201C74.1381 151.14 74.0155 151.079 73.8316 151.017C73.4025 150.895 72.9734 150.773 72.5443 150.711C72.1151 150.589 71.686 150.528 71.2569 150.528C70.8278 150.467 70.3374 150.406 69.9083 150.406C69.6018 150.406 69.2952 150.467 68.9887 150.467C68.4983 150.467 68.0692 150.528 67.6401 150.65C67.211 150.712 66.7819 150.773 66.3528 150.895C65.9237 151.018 65.4945 151.14 65.0654 151.324C64.6363 151.507 64.2685 151.691 63.8394 151.874C63.4716 152.058 63.1038 152.303 62.6746 152.486C48.3912 161.786 56.9122 183.568 66.6593 189.87C62.9811 190.543 59.2417 191.338 58.1996 192.133C58.1382 192.195 58.0771 192.256 58.0771 192.256C60.7131 193.847 63.4717 195.193 66.3528 196.355C70.2762 197.64 74.4447 198.802 76.2838 199.292V199.353C81.3719 200.393 86.5212 200.76 91.7319 200.455C118.889 198.558 141.141 177.939 145.187 150.773C145.31 151.324 145.433 151.813 145.555 152.364C145.739 153.465 145.984 154.627 146.107 155.79V155.851C146.229 156.402 146.291 156.953 146.352 157.442V157.687C146.414 158.238 146.475 158.788 146.475 159.278C146.536 159.951 146.597 160.624 146.597 161.297V162.276C146.597 162.582 146.659 162.949 146.659 163.255C146.659 163.622 146.597 163.989 146.597 164.356V165.213C146.597 165.641 146.536 166.008 146.536 166.436C146.536 166.681 146.536 166.926 146.474 167.232C146.474 167.66 146.413 168.088 146.413 168.578C146.352 168.761 146.352 168.945 146.352 169.128C146.29 169.618 146.229 170.046 146.168 170.536C146.168 170.719 146.168 170.903 146.106 171.086C146.045 171.698 145.922 172.249 145.861 172.861V172.922V172.983C145.738 173.534 145.616 174.146 145.493 174.696V174.88C145.371 175.431 145.248 175.981 145.125 176.532C145.125 176.593 145.064 176.716 145.064 176.777C144.941 177.327 144.819 177.878 144.635 178.429V178.612C144.451 179.224 144.267 179.775 144.144 180.325C144.083 180.387 144.083 180.448 144.083 180.448C143.899 181.06 143.715 181.671 143.531 182.283C143.286 182.895 143.102 183.446 142.857 184.058C142.612 184.669 142.428 185.281 142.183 185.832C141.937 186.444 141.692 186.994 141.447 187.606H141.386C141.14 188.157 140.895 188.769 140.589 189.319C140.527 189.503 140.466 189.625 140.405 189.748C140.343 189.809 140.343 189.87 140.282 189.931C136.298 197.946 130.413 204.983 123.056 210.489C122.566 210.795 122.075 211.162 121.585 211.529C121.463 211.652 121.279 211.713 121.156 211.835C120.727 212.141 120.298 212.447 119.807 212.753L119.991 213.12H120.053C120.911 212.998 121.769 212.875 122.627 212.753H122.689C124.283 212.508 125.876 212.202 127.47 211.896C127.899 211.835 128.39 211.713 128.819 211.591C129.125 211.529 129.371 211.468 129.677 211.407C130.106 211.346 130.535 211.223 130.964 211.162C131.332 211.04 131.7 210.979 132.068 210.856C138.198 209.388 144.144 207.369 149.845 204.983C140.098 218.26 127.041 228.967 111.777 236.003C118.827 235.513 125.876 234.351 132.681 232.393C157.386 225.112 178.167 208.531 190.611 186.199C188.098 200.333 182.458 213.793 174.121 225.54C180.067 221.625 185.523 217.097 190.489 211.958C204.22 197.64 213.232 179.469 216.297 159.951C218.381 169.618 218.994 179.591 218.075 189.442C262.335 127.829 221.753 63.9528 204.772 47.1271C204.711 47.0048 204.65 46.9435 204.65 46.8212C204.588 46.8824 204.588 46.8824 204.588 46.9434C204.588 46.8822 204.588 46.8822 204.527 46.8212C204.527 47.5554 204.465 48.2896 204.404 49.0238C204.22 50.431 204.036 51.7771 203.791 53.1232C203.485 54.4692 203.117 55.8152 202.749 57.1613C202.32 58.4462 201.83 59.7922 201.278 61.0771C200.726 62.3008 200.113 63.5856 199.439 64.8093C198.764 65.9719 198.029 67.1955 197.232 68.2968C196.435 69.4594 195.577 70.5607 194.719 71.6008C193.799 72.7021 192.818 73.6811 191.837 74.66C191.224 75.2107 190.673 75.7001 190.06 76.1896C189.569 76.6179 189.14 76.985 188.65 77.4133C187.546 78.2699 186.443 79.0653 185.217 79.7995C184.052 80.5337 182.826 81.2679 181.6 81.8798C180.313 82.4916 179.025 83.0422 177.738 83.5929C176.451 84.0824 175.102 84.5107 173.753 84.8778C172.405 85.2449 170.995 85.5508 169.646 85.7955C168.236 86.0404 166.826 86.1626 165.477 86.285C164.497 86.3463 163.516 86.4073 162.535 86.4073C161.125 86.4073 159.715 86.285 158.366 86.1625C156.957 86.0402 155.547 85.8565 154.198 85.5506C152.788 85.3058 151.439 84.9387 150.091 84.5105H150.029C151.378 84.3882 152.727 84.2656 154.075 84.021C155.485 83.7762 156.834 83.4704 158.182 83.1032C159.531 82.7361 160.88 82.3078 162.167 81.8184C163.516 81.3289 164.803 80.7171 166.029 80.1052C167.316 79.4933 168.481 78.8203 169.707 78.0861C170.872 77.2907 172.037 76.4953 173.14 75.6387C174.244 74.7822 175.286 73.8644 176.267 72.8855C177.309 71.9677 178.228 70.9276 179.148 69.8874C180.067 68.7861 180.926 67.6848 181.722 66.5835C181.845 66.3999 181.968 66.1552 182.09 65.9716C182.703 64.9927 183.316 64.0137 183.868 63.0348C184.542 61.8111 185.155 60.5874 185.707 59.3026C186.259 58.0177 186.749 56.7328 187.178 55.3868C187.607 54.1019 187.914 52.7558 188.22 51.4098C188.466 50.0025 188.711 48.6565 188.833 47.3104C188.956 45.9032 189.079 44.496 189.079 43.1499C189.079 42.171 189.017 41.192 188.956 40.2131C188.834 38.8058 188.65 37.4598 188.466 36.1137C188.221 34.7065 187.914 33.3604 187.546 32.0144C187.117 30.7295 186.688 29.3834 186.198 28.0986C185.707 26.8137 185.094 25.5288 184.481 24.3051C183.807 23.0815 183.133 21.8578 182.397 20.6953C181.6 19.5328 180.803 18.4315 179.945 17.3301C179.025 16.29 178.106 15.2499 177.125 14.2097C176.635 13.7203 176.083 13.1696 175.531 12.6802C172.773 10.5387 169.891 8.51959 167.01 6.68408C166.581 6.43925 166.213 6.25578 165.784 6.07222C163.761 4.78737 161.861 4.11432 159.96 3.5025L159.96 3.50216Z" fill="#FBBF24"/>
</svg>
  