<svg width="456" height="273" viewBox="0 0 456 273" fill="none" xmlns="http://www.w3.org/2000/svg">
    <path d="M107.815 71.8431H193.637V78.6276H115.682V129.69H188.989V136.475H115.682V192.537H194.531V199.322H107.815V71.8431ZM201.326 71.8431H210.444L250.852 127.905L292.155 71.8431L348.332 0.63147L256.038 133.797L303.598 199.322H294.121L250.852 139.689L207.405 199.322H198.107L246.025 133.797L201.326 71.8431ZM306.995 78.6276V71.8431H404.797V78.6276H359.74V199.322H351.873V78.6276H306.995Z" fill="#FBBF24"/>
    <path d="M0.446045 71.8431H10.2799L145.883 273.667L89.8446 199.322L8.67071 81.4844L8.31312 199.322H0.446045V71.8431Z" fill="#FBBF24"/>
    <path d="M404.004 190.49C405.631 190.49 406.817 189.251 406.817 187.65C406.817 186.049 405.631 184.811 404.004 184.811C402.397 184.811 401.191 186.049 401.191 187.65C401.191 189.251 402.397 190.49 404.004 190.49ZM411.735 183.019C411.735 187.745 415.16 190.833 420.154 190.833C425.473 190.833 428.688 187.65 428.688 182.124V162.667H424.402V182.105C424.402 185.173 422.852 186.812 420.115 186.812C417.666 186.812 416.002 185.287 415.944 183.019H411.735ZM434.294 182.772C434.6 187.688 438.714 190.833 444.837 190.833C451.381 190.833 455.476 187.536 455.476 182.276C455.476 178.141 453.142 175.854 447.478 174.539L444.435 173.796C440.838 172.958 439.384 171.833 439.384 169.871C439.384 167.393 441.642 165.774 445.029 165.774C448.243 165.774 450.463 167.355 450.865 169.89H455.036C454.787 165.259 450.692 162 445.086 162C439.059 162 435.04 165.259 435.04 170.156C435.04 174.196 437.317 176.597 442.311 177.76L445.87 178.617C449.525 179.475 451.132 180.733 451.132 182.829C451.132 185.268 448.607 187.04 445.163 187.04C441.47 187.04 438.906 185.382 438.542 182.772H434.294Z" fill="#FBBF24"/>
</svg>
    