<svg width="162" height="149" viewBox="0 0 162 149" fill="none" xmlns="http://www.w3.org/2000/svg">
  <path d="M66.0519 149.001C64.0683 149.001 62.0984 148.481 60.3594 147.48L42.2399 136.755C39.5336 135.242 40.8542 134.707 41.7467 134.398C45.3552 133.135 46.0874 132.85 49.939 130.663C50.3439 130.432 50.8737 130.514 51.2881 130.758L65.2082 139.017C65.7109 139.288 66.4241 139.288 66.8901 139.017L121.166 107.694C121.668 107.409 121.994 106.825 121.994 106.227V43.6103C121.994 42.9855 121.668 42.4286 121.155 42.1162L66.901 10.8212C66.3983 10.5224 65.7326 10.5224 65.2299 10.8212L10.987 42.1162C10.4612 42.415 10.127 42.9991 10.127 43.5967V106.214C10.127 106.812 10.453 107.382 10.9693 107.667L25.8322 116.252C33.9023 120.286 38.8339 115.532 38.8339 110.751V48.9484C38.8339 48.0655 39.5268 47.3864 40.4099 47.3864H47.2843C48.1402 47.3864 48.8467 48.0655 48.8467 48.9484V110.778C48.8467 121.535 42.9776 127.716 32.7746 127.716C29.6363 127.716 27.1637 127.716 20.262 124.32L6.02403 116.116C4.29297 115.106 2.85662 113.661 1.8579 111.923C0.859188 110.186 0.332937 108.218 0.331543 106.214V43.5967C0.331543 39.5219 2.50529 35.7186 6.02403 33.7084L60.354 2.37266C63.7912 0.430305 68.356 0.430305 71.7661 2.37266L126.028 33.722C127.759 34.7287 129.195 36.1715 130.194 37.9066C131.193 39.6417 131.719 41.6084 131.721 43.6103V106.227C131.721 110.289 129.533 114.078 126.028 116.116L71.7661 147.452C70.0266 148.453 68.0537 148.978 66.0465 148.973" fill="#FBBF24"/>
  <path d="M82.8168 105.854C59.0687 105.854 54.0895 94.955 54.0895 85.8137C54.0895 84.9444 54.7905 84.2517 55.6614 84.2517H62.6717C63.4461 84.2517 64.0982 84.8154 64.2205 85.5801C65.2802 92.722 68.4321 96.3241 82.7924 96.3241C94.2317 96.3241 99.0954 93.7407 99.0954 87.6759C99.0954 84.1851 97.7097 81.5908 79.9394 79.8522C65.0764 78.3852 55.8924 75.1118 55.8924 63.2267C55.8924 52.2789 65.1307 45.7591 80.6051 45.7591C97.9814 45.7591 106.595 51.7899 107.682 64.748C107.7 64.9659 107.672 65.1851 107.601 65.3919C107.53 65.5986 107.417 65.7884 107.269 65.9493C107.121 66.1101 106.941 66.2385 106.741 66.3263C106.541 66.4141 106.324 66.4594 106.106 66.4594H99.0547C98.321 66.4594 97.6825 65.9433 97.5331 65.237C95.8348 57.7256 91.7319 55.3215 80.5779 55.3215C68.0925 55.3215 66.6388 59.668 66.6388 62.9279C66.6388 66.8805 68.3506 68.0351 85.1971 70.2627C101.881 72.4767 109.801 75.6007 109.801 87.3228C109.801 99.1399 99.9378 105.918 82.7381 105.918L82.8168 105.854ZM148.847 39.511H150.667C152.162 39.511 152.447 38.4651 152.447 37.8539C152.447 36.2511 151.347 36.2511 150.735 36.2511H148.861L148.847 39.511ZM146.632 34.3767H150.667C152.053 34.3767 154.77 34.3767 154.77 37.4736C154.77 39.6332 153.385 40.0815 152.556 40.3531C154.173 40.4618 154.281 41.5213 154.499 43.0154C154.607 43.9526 154.784 45.569 155.11 46.1123H152.624C152.556 45.569 152.175 42.5807 152.175 42.4177C152.012 41.7522 151.781 41.4262 150.953 41.4262H148.901V46.1259H146.632V34.3767ZM141.782 40.2173C141.782 45.08 145.709 49.019 150.532 49.019C155.395 49.019 159.322 44.9985 159.322 40.2173C159.322 35.3411 155.341 31.4699 150.518 31.4699C145.763 31.4699 141.769 35.2867 141.769 40.2037L141.782 40.2173ZM161.006 40.2445C161.006 46.0036 156.292 50.7033 150.545 50.7033C144.839 50.7033 140.084 46.0579 140.084 40.2445C140.084 34.3223 144.948 29.7856 150.545 29.7856C156.183 29.7856 160.993 34.3359 160.993 40.2445" fill="#FBBF24"/>
</svg>
  