<svg width="190" height="189" viewBox="0 0 190 189" fill="none" xmlns="http://www.w3.org/2000/svg">
  <path d="M94.3151 0C46.0813 3.44118e-06 49.0933 20.9159 49.0933 20.9159L49.1471 42.5846H95.1754V49.0906H30.8648C30.8648 49.0906 0 45.5904 0 94.256C-3.44137e-06 142.922 26.9395 141.196 26.9395 141.196H43.0171V118.613C43.0171 118.613 42.1505 91.6751 69.5265 91.6751C96.9024 91.6751 115.178 91.6751 115.178 91.6751C115.178 91.6751 140.827 92.0897 140.827 66.8879C140.827 41.6861 140.827 25.2174 140.827 25.2174C140.827 25.2174 144.722 0 94.3151 0ZM68.935 14.5712C73.5145 14.5712 77.2158 18.2723 77.2158 22.8516C77.2158 27.4308 73.5145 31.1319 68.935 31.1319C64.3555 31.1319 60.6542 27.4308 60.6542 22.8516C60.6542 18.2723 64.3555 14.5712 68.935 14.5712Z" fill="#F59E0B"/>
  <path d="M95.6849 189C143.919 189 140.907 168.084 140.907 168.084L140.853 146.415H94.8246V139.909H159.135C159.135 139.909 190 143.41 190 94.744C190 46.0784 163.061 47.8041 163.061 47.8041H146.983V70.3869C146.983 70.3869 147.85 97.3248 120.474 97.3248C93.0976 97.3248 74.8216 97.3248 74.8216 97.3248C74.8216 97.3248 49.1727 96.9102 49.1727 122.112C49.1727 147.314 49.1727 163.783 49.1727 163.783C49.1727 163.783 45.2784 189 95.6849 189ZM121.065 174.429C116.486 174.429 112.784 170.728 112.784 166.148C112.784 161.569 116.486 157.868 121.065 157.868C125.645 157.868 129.346 161.569 129.346 166.148C129.346 170.728 125.645 174.429 121.065 174.429Z" fill="#FBBF24"/>
</svg>
  