<svg width="297" height="264" viewBox="0 0 297 264" fill="none" xmlns="http://www.w3.org/2000/svg">
	<path d="M296.043 131.806C296.043 112.207 271.485 93.633 233.833 82.1146C242.522 43.7601 238.66 13.2454 221.645 3.47588C217.722 1.18426 213.137 0.098757 208.128 0.098757V13.5469C210.904 13.5469 213.137 14.0897 215.007 15.1149C223.213 19.8187 226.773 37.7295 223.998 60.7663C223.334 66.4351 222.248 72.4053 220.92 78.4962C209.094 75.6015 196.181 73.3702 182.605 71.9229C174.459 60.7663 166.011 50.635 157.503 41.77C177.174 23.4974 195.638 13.4866 208.189 13.4866V0.0384521C191.595 0.0384521 169.873 11.8584 147.909 32.3623C125.946 11.979 104.224 0.279676 87.6301 0.279676V13.7279C100.12 13.7279 118.645 23.6783 138.315 41.8303C129.868 50.6953 121.42 60.7663 113.395 71.9229C99.7584 73.3702 86.8457 75.6015 75.0191 78.5565C73.6313 72.5259 72.6055 66.6763 71.8814 61.0679C69.0455 38.0311 72.5452 20.1203 80.691 15.3561C82.5012 14.2706 84.8545 13.7882 87.6301 13.7882V0.339981C82.5616 0.339981 77.9757 1.42548 73.9933 3.7171C57.0379 13.4866 53.2365 43.941 61.9857 82.1749C24.4544 93.7536 0.016861 112.267 0.016861 131.806C0.016861 151.406 24.5751 169.98 62.2271 181.498C53.5382 219.853 57.3999 250.368 74.4157 260.137C78.3378 262.429 82.9236 263.514 87.9921 263.514C104.586 263.514 126.308 251.694 148.272 231.19C170.235 251.574 191.957 263.273 208.551 263.273C213.619 263.273 218.205 262.187 222.188 259.896C239.143 250.126 242.944 219.672 234.195 181.438C271.606 169.92 296.043 151.346 296.043 131.806ZM217.481 91.5826C215.249 99.362 212.473 107.383 209.335 115.403C206.861 110.579 204.267 105.754 201.431 100.93C198.655 96.1055 195.699 91.4016 192.742 86.8184C201.31 88.0848 209.577 89.6528 217.481 91.5826ZM189.846 155.808C185.139 163.949 180.312 171.669 175.304 178.845C166.313 179.629 157.202 180.051 148.03 180.051C138.919 180.051 129.808 179.629 120.877 178.905C115.869 171.729 110.982 164.07 106.275 155.989C101.689 148.089 97.5258 140.068 93.7244 131.987C97.4655 123.906 101.689 115.825 106.215 107.925C110.921 99.7841 115.748 92.065 120.757 84.8886C129.747 84.1046 138.859 83.6825 148.03 83.6825C157.141 83.6825 166.253 84.1046 175.183 84.8283C180.191 92.0047 185.079 99.6635 189.785 107.744C194.371 115.645 198.534 123.665 202.336 131.746C198.534 139.827 194.371 147.908 189.846 155.808ZM209.335 147.968C212.594 156.049 215.369 164.13 217.662 171.97C209.758 173.9 201.431 175.528 192.802 176.795C195.759 172.151 198.716 167.387 201.491 162.502C204.267 157.678 206.861 152.793 209.335 147.968ZM148.151 212.315C142.539 206.525 136.928 200.073 131.376 193.017C136.807 193.258 142.358 193.439 147.97 193.439C153.642 193.439 159.253 193.318 164.744 193.017C159.314 200.073 153.702 206.525 148.151 212.315ZM103.258 176.795C94.6898 175.528 86.4233 173.96 78.5188 172.03C80.7514 164.251 83.527 156.23 86.6647 148.21C89.1386 153.034 91.7332 157.859 94.5692 162.683C97.4051 167.507 100.301 172.211 103.258 176.795ZM147.849 51.2983C153.461 57.0877 159.072 63.5404 164.624 70.5962C159.193 70.3549 153.642 70.174 148.03 70.174C142.358 70.174 136.747 70.2946 131.256 70.5962C136.686 63.5404 142.298 57.0877 147.849 51.2983ZM103.198 86.8184C100.241 91.4619 97.2845 96.2261 94.5088 101.111C91.7332 105.935 89.1386 110.76 86.6647 115.584C83.4063 107.503 80.6307 99.4223 78.3378 91.5826C86.2423 89.7131 94.5692 88.0848 103.198 86.8184ZM48.5903 162.321C27.2301 153.215 13.4123 141.274 13.4123 131.806C13.4123 122.338 27.2301 110.338 48.5903 101.292C53.7795 99.0605 59.4515 97.0704 65.3044 95.2009C68.7438 107.021 73.2693 119.323 78.8808 131.927C73.3296 144.471 68.8645 156.713 65.4854 168.472C59.5118 166.603 53.8399 164.552 48.5903 162.321ZM81.0531 248.498C72.8469 243.794 69.2868 225.883 72.0625 202.847C72.7262 197.178 73.8123 191.208 75.1398 185.117C86.9664 188.011 99.8791 190.243 113.456 191.69C121.601 202.847 130.049 212.978 138.557 221.843C118.886 240.116 100.422 250.126 87.8715 250.126C85.1562 250.066 82.8633 249.523 81.0531 248.498ZM224.179 202.545C227.015 225.582 223.515 243.493 215.369 248.257C213.559 249.342 211.206 249.825 208.43 249.825C195.94 249.825 177.416 239.874 157.745 221.722C166.192 212.857 174.64 202.786 182.665 191.63C196.302 190.182 209.215 187.951 221.041 184.996C222.429 191.087 223.515 196.937 224.179 202.545ZM247.41 162.321C242.22 164.552 236.548 166.543 230.696 168.412C227.256 156.592 222.731 144.29 217.119 131.686C222.67 119.142 227.135 106.9 230.515 95.1406C236.488 97.0101 242.16 99.0605 247.47 101.292C268.83 110.398 282.648 122.338 282.648 131.806C282.588 141.274 268.77 153.275 247.41 162.321Z" fill="#FBBF24"/>
	<path d="M147.97 159.366C163.199 159.366 175.545 147.027 175.545 131.806C175.545 116.586 163.199 104.247 147.97 104.247C132.74 104.247 120.395 116.586 120.395 131.806C120.395 147.027 132.74 159.366 147.97 159.366Z" fill="#FBBF24"/>
</svg>
	