<svg width="374" height="374" viewBox="0 0 374 374" fill="none" xmlns="http://www.w3.org/2000/svg">
  <path fill-rule="evenodd" clip-rule="evenodd" d="M36.5234 0H337.477C357.648 0 374 16.3521 374 36.5234V337.477C374 357.648 357.648 374 337.477 374H36.5234C16.3521 374 0 357.648 0 337.477V36.5234C0 16.3521 16.3521 0 36.5234 0ZM231.559 298.751V297.301L230.171 297.622C230.63 298.005 231.092 298.381 231.559 298.751ZM231.559 298.751V333.824C237.475 336.892 244.707 339.157 252.742 340.691C260.777 342.225 269.543 342.955 278.309 342.955C287.074 342.955 295.109 342.152 303.145 340.471C311.18 338.791 317.754 336.016 323.598 332.436C329.514 328.565 334.555 323.671 337.477 317.096C340.398 310.522 342.663 303.218 342.663 293.721C342.663 287.074 341.64 281.304 339.668 276.19C337.696 271.077 334.847 266.694 330.902 263.042C327.177 259.17 322.867 255.737 317.754 252.815C312.641 249.893 306.797 246.825 300.223 244.05C297.235 242.827 294.583 241.633 291.956 240.449C290.344 239.723 288.741 239.001 287.074 238.279C283.276 236.38 279.989 234.48 277.578 232.581C274.875 230.609 272.83 228.564 271.369 226.445C269.908 224.254 269.178 221.843 269.178 219.141C269.178 216.657 269.828 214.393 271.15 212.347C272.472 210.302 274.291 208.622 276.629 207.161C278.966 205.7 281.888 204.604 285.394 203.801C288.827 202.997 292.626 202.632 297.082 202.632C300.15 202.632 303.364 202.858 306.578 203.319C309.938 203.779 313.371 204.487 316.804 205.437C320.238 206.387 323.598 207.555 327.031 209.016C330.245 210.477 333.24 212.157 335.796 214.057V179.725C330.245 177.606 324.109 175.999 317.535 174.976C310.961 173.954 303.656 173.443 294.89 173.443C286.125 173.443 278.089 174.392 270.054 176.218C262.019 178.044 255.445 180.966 249.601 184.984C243.684 188.928 239.375 193.75 235.722 200.324C232.289 206.46 230.609 213.472 230.609 222.238C230.609 233.195 233.75 242.691 240.105 249.996C246.387 258.031 256.175 263.875 268.593 269.718C272.968 271.493 276.902 273.269 280.731 274.996C281.313 275.259 281.893 275.521 282.472 275.781C286.855 277.753 290.507 279.799 293.429 281.917C296.57 284.035 299.054 286.373 300.734 288.857C302.56 291.34 303.51 294.262 303.51 297.622C303.51 299.96 302.94 302.151 301.83 304.196C300.719 306.242 298.981 307.995 296.643 309.456C294.306 310.917 291.457 312.085 287.878 312.962C284.445 313.766 280.573 314.204 275.46 314.204C267.425 314.204 259.389 312.816 252.085 310.04C244.611 307.458 237.769 303.675 231.559 298.751ZM216.949 207.453H170.199V341.129H132.945V207.453H86.1953V177.504H216.949V207.453Z" fill="#FBBF24"/>
</svg>
  